<?xml version="1.0" encoding="UTF-8" standalone="no"?>
<!-- Created with Inkscape (http://www.inkscape.org/) -->
<svg id="svg2" xmlns:rdf="http://www.w3.org/1999/02/22-rdf-syntax-ns#" xmlns="http://www.w3.org/2000/svg" height=".82165in" width="1.8734in" version="1.1" xmlns:cc="http://creativecommons.org/ns#" xmlns:dc="http://purl.org/dc/elements/1.1/" viewBox="0 0 168.60486 73.948288">
 <metadata id="metadata7">
  <rdf:RDF>
   <cc:Work rdf:about="">
    <dc:format>image/svg+xml</dc:format>
    <dc:type rdf:resource="http://purl.org/dc/dcmitype/StillImage"/>
    <dc:title/>
   </cc:Work>
  </rdf:RDF>
 </metadata>
 <g id="layer3" transform="translate(-92.565 -53.209)">
  <rect id="rect4511" opacity=".3" height="42.841" width="168.6" y="71.044" x="92.565" fill="#a52a2a"/>
 </g>
 <g id="layer1" transform="translate(-92.565 -53.209)">
  <g id="flowRoot4481" transform="translate(-27.064 -32.83)">
   <g fill="#36c">
    <path id="path4636" d="m132.94 110.16h6.4844q0.76172 0 1.1133 0.33203 0.3711 0.3125 0.3711 1.0156 0 0.80078-0.35157 1.1133-0.33203 0.29297-1.25 0.29297h-12.773q-0.76172 0-1.1524-0.35156-0.39062-0.35156-0.39062-1.0547 0-0.68359 0.39062-1.0156 0.41016-0.33203 1.25-0.33203h3.3984v-12.52h-1.3281q-1.8945 0-2.3633-0.29297-0.46875-0.3125-0.46875-1.1133 0-0.68359 0.3711-1.0156 0.39062-0.35156 1.1719-0.35156h4.4531q0.52734 0 0.80078 0.21484 0.27344 0.19531 0.27344 0.58594v3.3203q1.8555-2.3242 3.8672-3.457t4.3359-1.1328q1.7383 0 2.8125 0.70312t1.0742 1.8164q0 0.72266-0.54687 1.2891-0.52735 0.54688-1.1719 0.54688-0.44922 0-1.5234-0.58594-1.0547-0.60547-1.8945-0.60547-1.5234 0-3.2226 1.0938-1.6797 1.0742-3.7305 3.418v8.0859z"/>
    <path id="path4638" d="m158.83 110.67q3.0078 0 4.9219-1.8945 1.9336-1.9141 1.9336-4.8633t-1.9336-4.8633q-1.9336-1.9336-4.9219-1.9336t-4.9219 1.9336q-1.9141 1.9141-1.9141 4.8633 0 2.9688 1.9141 4.8633t4.9219 1.8945zm10.254-6.7578q0 4.1797-2.8516 6.8359t-7.4024 2.6562q-4.5312 0-7.3828-2.6562t-2.8516-6.8359 2.8516-6.8164q2.8516-2.6562 7.3828-2.6562t7.3828 2.6562q2.8711 2.6562 2.8711 6.8164z"/>
    <path id="path4640" d="m183.87 110.2q2.7539 0 4.4726-1.7383 1.7188-1.7383 1.7188-4.5117 0-2.7148-1.7578-4.4727-1.7383-1.7578-4.4336-1.7578-2.7148 0-4.4531 1.7578-1.7188 1.7383-1.7188 4.4727t1.7188 4.4922q1.7383 1.7578 4.4531 1.7578zm-6.09-12.52q1.0938-1.3672 2.7344-2.0898 1.6406-0.72266 3.7109-0.72266 3.9258 0 6.543 2.6562 2.6172 2.6367 2.6172 6.543 0 3.8476-2.6953 6.5234-2.6758 2.6758-6.543 2.6758-2.0508 0-3.5742-0.72266t-2.5-2.1875v1.5625q0 0.52734-0.19532 0.76172-0.17578 0.23437-0.60547 0.23437h-3.5742q-0.76172 0-1.1328-0.35156-0.37109-0.35156-0.37109-1.0547 0-0.78125 0.44922-1.0547 0.44922-0.29297 1.7773-0.29297h0.41016v-20h-0.3711q-1.3281 0-1.8164-0.3125-0.48828-0.3125-0.48828-1.0938 0-0.70312 0.39062-1.0547 0.39063-0.35156 1.1524-0.35156h2.9688q0.58593 0 0.83984 0.19531 0.27344 0.19531 0.27344 0.60547v9.5312z"/>
    <path id="path4642" d="m205.01 89.242q0-2.1094 0.37109-2.6562 0.39063-0.54688 1.6406-0.54688 1.2109 0 1.6016 0.46875 0.39063 0.44922 0.39063 2.168 0 1.6797-0.3711 2.0898-0.35156 0.39062-1.6211 0.39062-1.25 0-1.6406-0.37109-0.37109-0.37109-0.37109-1.543zm3.6133 20.918h6.2695q0.76172 0 1.1133 0.33203 0.3711 0.3125 0.3711 1.0156 0 0.80078-0.35157 1.1133-0.33203 0.29297-1.25 0.29297h-15.156q-0.78125 0-1.1719-0.35156-0.39063-0.35156-0.39063-1.0547 0-0.68359 0.41016-1.0156 0.41016-0.33203 1.2305-0.33203h5.957v-12.52h-3.8086q-0.80078 0-1.2305-0.35156-0.41016-0.37109-0.41016-1.0547 0-0.68359 0.39063-1.0156 0.39062-0.35156 1.1719-0.35156h5.7227q0.52734 0 0.82031 0.21484 0.3125 0.21484 0.3125 0.58594v14.492z"/>
    <path id="path4644" d="m223.52 110.16v-12.52h-0.37109q-1.3281 0-1.8359-0.3125-0.48828-0.3125-0.48828-1.0938 0-0.72266 0.41016-1.0352 0.41015-0.33203 1.3281-0.33203h0.91797 1.875q0.52735 0 0.82031 0.21484 0.29297 0.21484 0.29297 0.58594v1.3281q1.4258-1.3281 2.8125-1.9531 1.4062-0.64453 2.9102-0.64453 2.9492 0 4.6289 1.8359 1.6992 1.8359 1.6992 5.0781v8.8477h0.91797q0.97657 0 1.4062 0.33203 0.42969 0.3125 0.42969 1.0156 0 0.76172-0.46875 1.0938-0.44922 0.3125-1.6211 0.3125h-4.3164q-1.25 0-1.6016-0.29297-0.35156-0.29296-0.35156-1.1133 0-0.76172 0.41015-1.0547 0.41016-0.29297 1.543-0.29297h0.68359v-8.125q0-2.2852-1.0352-3.4766-1.0352-1.2109-3.0078-1.2109-1.9922 0-3.5156 1.3477t-1.5234 3.3398v8.125h0.6836q1.1719 0 1.582 0.29297 0.41015 0.29296 0.41015 1.0547 0 0.82032-0.35156 1.1133-0.35156 0.29297-1.7188 0.29297h-3.5547-1.0547q-0.80078 0-1.2109-0.33203-0.39063-0.35156-0.39063-1.0742 0-0.78125 0.44922-1.0547 0.46875-0.29297 1.7969-0.29297h0.41015z"/>
   </g>
   <path id="path4646" d="m258.81 89.945q0 0.41016-0.66406 1.7773-0.64453 1.3477-0.97656 2.1484-1.3281 3.1055-1.8945 5.6836-0.54688 2.5781-0.54688 5.3516 0 2.5586 0.46875 4.9609 0.46875 2.3828 1.4258 4.7656 0.48828 1.2891 1.3281 3.0274 0.85937 1.7578 0.85937 2.168 0 0.42968-0.19531 0.66406-0.17578 0.2539-0.48828 0.2539-0.60547 0-1.3477-0.64453-0.74218-0.625-1.7188-2.0312-2.0898-2.9883-3.125-6.2695t-1.0352-6.8945q0-3.3008 0.83984-6.2891 0.85938-3.0078 2.5977-5.8203 1.1328-1.8555 2.0898-2.793 0.95703-0.9375 1.6992-0.9375 0.3125 0 0.48828 0.25391 0.19531 0.23438 0.19531 0.625z"/>
   <path id="path4648" d="m274.93 119.83q0-0.39063 0.66407-1.7383 0.66406-1.3281 1.0156-2.1289 1.3086-3.125 1.875-5.7031 0.56641-2.5976 0.56641-5.3516 0-2.5-0.48828-4.9023-0.46875-2.4219-1.4453-4.8438-0.50781-1.2891-1.3476-3.0273-0.83985-1.7578-0.83985-2.1875 0-0.39062 0.19532-0.625 0.19531-0.25391 0.50781-0.25391 0.64453 0 1.3672 0.64453 0.74218 0.625 1.7188 2.0117 2.0898 2.9688 3.125 6.2695 1.0352 3.3008 1.0352 6.9141 0 3.3008-0.8789 6.3086-0.85938 3.0078-2.5977 5.8203-1.2109 1.9141-2.1289 2.8125-0.89843 0.89843-1.6406 0.89843-0.3125 0-0.50781-0.2539-0.19532-0.25391-0.19532-0.66406z"/>
  </g>
  <g id="text4497" fill="#3cb371">
   <path id="path4625" d="m116.21 112.72q0 3.24-0.6 5.92-0.56 2.64-1.8 4.56-1.2 1.88-3.08 2.92-1.84 1.04-4.36 1.04t-4.4-1.04q-1.84-1.04-3.08-2.92-1.2-1.92-1.8-4.56-0.6-2.68-0.6-5.92t0.6-5.92 1.8-4.56q1.24-1.92 3.08-2.96 1.88-1.08 4.4-1.08t4.36 1.08q1.88 1.04 3.08 2.96 1.24 1.88 1.8 4.56 0.6 2.68 0.6 5.92zm-3.84 0q0-2.52-0.32-4.6t-1.04-3.56q-0.72-1.52-1.88-2.36-1.12-0.84-2.76-0.84t-2.8 0.84q-1.12 0.84-1.84 2.36-0.72 1.48-1.08 3.56-0.32 2.08-0.32 4.6t0.32 4.6q0.36 2.08 1.08 3.56t1.84 2.32q1.16 0.8 2.8 0.8t2.76-0.8q1.16-0.84 1.88-2.32t1.04-3.56 0.32-4.6z"/>
   <path id="path4627" d="m151.13 126.56q-0.96-2.36-2.2-5.08-1.2-2.76-2.56-5.52-1.32-2.8-2.72-5.52-1.4-2.76-2.76-5.12v21.24h-3.36v-27.72h3q1.52 2.48 2.92 5.08 1.44 2.6 2.72 5.16 1.28 2.52 2.4 5 1.16 2.44 2.12 4.64v-19.88h3.36v27.72h-2.92z"/>
   <path id="path4629" d="m179.88 124.08q2.16 0 3.32-1.2 1.2-1.2 1.2-3.24 0-1.08-0.36-1.92t-0.96-1.52q-0.56-0.68-1.32-1.24t-1.56-1.12q-0.92-0.64-1.92-1.36t-1.84-1.68q-0.8-0.96-1.32-2.24t-0.52-3q0-1.68 0.56-3.04 0.6-1.36 1.6-2.32 1.04-0.96 2.44-1.48 1.44-0.52 3.08-0.52 1.6 0 2.96 0.4t2.28 0.96l-1.12 2.84q-0.84-0.56-1.84-0.84-0.96-0.32-2.04-0.32-1.96 0-3.16 1.08-1.16 1.04-1.16 3.08 0 1.12 0.36 1.96 0.4 0.84 1 1.52 0.64 0.68 1.44 1.24 0.84 0.56 1.76 1.16t1.88 1.32 1.72 1.68q0.8 0.92 1.28 2.2 0.52 1.24 0.52 2.96 0 1.56-0.48 2.96t-1.52 2.48q-1 1.04-2.56 1.68-1.52 0.6-3.6 0.6-1.92 0-3.36-0.44t-2.56-1.16l1.12-2.88q1.04 0.64 2.12 1.04 1.12 0.36 2.56 0.36z"/>
   <path id="path4631" d="m216.99 98.837q0.96 3 1.88 6.08 0.96 3.04 1.84 6.4 0.92 3.36 1.8 7.12 0.92 3.76 1.84 8.12h-3.6q-0.32-1.8-0.68-3.56-0.32-1.76-0.68-3.52h-8.72q-0.4 1.76-0.72 3.52t-0.64 3.56h-3.48q0.88-4.36 1.8-8.12t1.8-7.12q0.92-3.36 1.84-6.4 0.96-3.08 1.92-6.08h3.8zm-1.96 4.08q-1 3.32-1.92 6.68t-1.76 6.88h7.32q-0.8-3.52-1.72-6.88t-1.92-6.68z"/>
   <path id="path4633" d="m257.24 98.837q-0.68 1.88-1.52 4-0.8 2.12-1.72 4.32-0.92 2.16-1.88 4.32t-1.92 4.12v10.96h-3.6v-10.72q-0.96-1.96-1.96-4.16t-1.92-4.4-1.76-4.36-1.52-4.08h3.88q1.04 3.16 2.36 6.68t2.72 6.56q1.4-3.04 2.72-6.56t2.36-6.68h3.76z"/>
  </g>
 </g>
</svg>
