<?xml version="1.0" encoding="UTF-8" standalone="no"?>
<!-- Created with Inkscape (http://www.inkscape.org/) -->

<svg
   version="1.1"
   id="svg1"
   width="653"
   height="597.66663"
   viewBox="0 0 653 597.66663"
   xmlns="http://www.w3.org/2000/svg"
   xmlns:svg="http://www.w3.org/2000/svg">
  <defs
     id="defs1" />
  <g
     id="layer1"
     style="display:inline"
     transform="translate(-185,-179.39916)">
    <path
       style="fill:#0e3347;fill-opacity:1"
       d="m 390.04713,775.86213 c -7.83433,-1.29891 -21.14286,-6.08641 -27.78976,-9.99687 -3.14611,-1.85089 -9.36732,-6.97187 -13.82491,-11.37996 -9.1582,-9.05649 -14.90824,-18.38004 -19.10932,-30.9853 -2.39569,-7.18824 -2.67305,-9.52205 -2.73342,-23 -0.0756,-16.86867 1.11885,-22.89989 6.95299,-35.10931 9.10288,-19.05007 25.37908,-32.60272 47.49492,-39.5474 6.54072,-2.05388 9.43847,-2.341 23.46237,-2.32472 15.43386,0.0179 16.33055,0.13332 25.342,3.26176 15.78465,5.47984 26.72541,12.97867 35.73426,24.49237 10.87774,13.90222 15.34484,26.04959 16.16121,43.94719 1.13663,24.91855 -6.66787,45.12916 -23.49937,60.85418 -18.13915,16.94673 -42.56938,24.03603 -68.19097,19.78806 z M 415.5,747.6288 c 8.73349,-2.35362 14.82741,-5.85716 21.01114,-12.07982 12.14862,-12.22509 17.03453,-30.12402 12.95142,-47.44587 -3.50751,-14.87995 -13.98742,-28.14157 -27.17496,-34.38805 -6.47153,-3.06535 -7.34737,-3.21506 -18.80863,-3.21506 -11.51901,0 -12.29425,0.13451 -18.5635,3.22085 -7.20309,3.54607 -15.23838,10.66221 -19.29437,17.08731 -1.44254,2.28513 -3.79811,7.65062 -5.23461,11.92331 -2.35024,6.99051 -2.56714,8.87018 -2.16573,18.76853 0.3892,9.59718 0.86392,11.99339 3.72243,18.78952 3.74984,8.91525 10.27228,16.71516 18.26814,21.84609 9.46104,6.07113 24.47294,8.40795 35.28867,5.49319 z M 185,699.41112 v -74.58888 l 39.25,0.42825 c 36.24595,0.39548 39.78672,0.58886 46.26264,2.52661 9.58734,2.86878 15.28096,6.25406 21.39972,12.72375 6.6631,7.04525 10.7561,15.80914 12.22095,26.16738 3.01928,21.34998 -5.91048,40.82782 -22.69713,49.50765 -3.53583,1.82827 -6.43045,3.61618 -6.43248,3.97315 -0.002,0.35696 7.195,12.50696 15.99341,27 l 15.99711,26.35097 -17.21198,0.27454 c -9.46658,0.15099 -17.67778,0.0924 -18.24711,-0.13018 C 270.96581,773.42176 264.425,761.94048 257,748.13039 L 243.5,723.02113 229.75,723.01057 216,723 V 748.5 774 H 200.5 185 Z m 79.771,-5.63873 c 6.31332,-4.18125 9.64657,-10.66796 9.6151,-18.71156 -0.0306,-7.82289 -2.50317,-13.36315 -7.97777,-17.87578 C 261.08433,652.79656 256.26797,652 235.05718,652 H 216 v 22.56874 22.56874 L 238.32628,696.81874 260.65256,696.5 Z M 506,699.4033 v -74.59671 l 39.25,0.46531 c 32.19404,0.38166 40.40293,0.76335 45.66337,2.12321 12.87006,3.327 21.76273,10.40563 26.92154,21.42974 2.36804,5.06039 2.65622,6.86672 2.6604,16.67515 0.005,10.60404 -0.11691,11.22423 -3.37348,17.22907 -3.44777,6.35741 -7.55668,10.27647 -13.36418,12.74669 l -3.25765,1.38564 4,1.61412 c 10.14099,4.09221 15.38002,8.53599 19.15132,16.24424 2.25891,4.61705 2.84752,7.36728 3.17391,14.82976 0.82359,18.83077 -5.89277,30.92834 -21.55607,38.82697 -10.33588,5.21213 -14.30649,5.59269 -58.51916,5.60873 L 506,774 Z m 78.27644,47.01817 c 15.4536,-5.26556 16.88517,-24.94235 2.37903,-32.69937 C 582.70725,711.61082 581.35291,711.5 559.5,711.5 h -23 l -0.27256,18.25 -0.27256,18.25 h 21.84442 c 17.27701,0 22.81307,-0.33005 26.47714,-1.57853 z M 579.5,684.10996 c 9.80497,-4.52529 13.19234,-14.41644 8.25,-24.09013 -3.9255,-7.68341 -6.67823,-8.46713 -31,-8.82596 L 536,650.88774 V 668.44387 686 l 19.75,-0.022 c 17.05984,-0.019 20.29484,-0.27342 23.75,-1.86808 z M 653.35815,770.25 c 0.34091,-2.0625 0.62479,-35.59953 0.63084,-74.52673 l 0.011,-70.77674 14.75,0.27674 14.75,0.27673 0.25641,74.25 0.2564,74.25 H 668.37556 652.73832 Z M 715,699.5 V 625 h 14.39562 14.39561 L 775.89562,672.98344 808,720.96687 V 672.98344 625 h 15 15 v 74.5 74.5 l -14.25,-0.0367 -14.25,-0.0367 -30,-45.00901 C 763,704.16257 748.50368,682.6916 747.28596,681.20426 L 745.07193,678.5 745.03596,726.25 745,774 H 730 715 Z M 689.25866,582.78367 c -0.37575,-4.98816 -2.6221,-12.52731 -4.94029,-16.58047 -2.59825,-4.54283 -6.94293,-7.19523 -15.13305,-9.23863 -2.37307,-0.59207 -4.16111,-1.53721 -3.9734,-2.10032 0.1877,-0.5631 3.01305,-1.9258 6.27855,-3.02823 10.83141,-3.65666 13.62192,-6.9223 16.45708,-19.25911 1.82959,-7.96123 3.63732,-9.49811 4.57687,-3.89112 1.7058,10.17984 3.43608,14.10947 7.96987,18.10027 2.65393,2.33608 6.42935,4.47432 9.24566,5.23634 8.62151,2.33275 9.19326,4.32888 1.53249,5.3503 -9.81244,1.30831 -15.28882,7.11753 -18.02539,19.12092 -1.75885,7.71486 -3.65572,10.70639 -3.98839,6.29005 z M 444,565.32827 c -27.0422,-1.93689 -60.31329,-8.16631 -80.32639,-15.03969 -8.83001,-3.03261 -8.47219,-3.62741 2.89616,-4.81436 3.81163,-0.39797 12.31178,-1.76741 18.88922,-3.04322 l 11.959,-2.31964 9.61447,1.89504 c 20.00255,3.94255 38.34413,5.23239 67.29737,4.73257 34.11382,-0.58891 54.96059,-3.2935 86.67017,-11.24429 68.49405,-17.17405 134.3145,-56.85043 161.65096,-97.44273 13.90043,-20.64097 18.97837,-45.51111 13.41943,-65.72413 -5.99761,-21.80806 -25.2664,-41.73834 -50.4952,-52.22865 -11.98476,-4.98334 -11.19871,-5.13123 -18.57519,3.49478 -3.575,4.18058 -13.1375,14.06148 -21.25,21.95754 -14.27238,13.89161 -14.75,14.48939 -14.75,18.46094 0,14.01559 -7.58016,43.19474 -15.11799,58.19533 -5.15144,10.2516 -26.01806,32.81496 -42.27464,45.71216 C 567.06113,473.1134 567,472.85397 567,439.87756 567,415.40093 566.78039,411 565.55902,411 c -0.79254,0 -1.70205,0.42241 -2.02113,0.9387 -1.32298,2.14062 -11.38708,7.05902 -13.17828,6.44032 C 547.592,417.42306 507,375.80902 507,373.92769 c 0,-0.88969 1.79019,-4.38738 3.97819,-7.77265 L 514.95638,360 l -9.22819,0.0138 c -5.0755,0.008 -18.07948,0.46024 -28.89773,1.00584 C 458.03691,361.9675 452,361.53365 452,359.23522 c 0,-0.87134 12.12068,-15.60996 26,-31.61571 8.20064,-9.45706 8.8874,-9.98956 19.5,-15.12009 15.88709,-7.68041 39.45614,-14.80147 56.27919,-17.00397 5.0537,-0.66163 5.44667,-0.93778 9.20031,-6.46526 14.34317,-21.12125 42.30063,-51.35826 63.5205,-68.69972 15.35196,-12.54605 41.45552,-27.16913 60,-33.61171 9.61711,-3.3411 20.28972,-5.95679 29.23981,-7.16621 8.3853,-1.13311 9.78647,3.74384 6.78893,23.62959 -4.34922,28.85279 -17.29193,62.1083 -34.49184,88.6247 -3.3203,5.11876 -6.0369,9.64237 -6.0369,10.05246 0,0.41008 2.3625,1.56797 5.25,2.57308 14.32489,4.98636 31.0442,15.10712 41.94605,25.39137 34.89176,32.91512 37.94002,78.74131 8.01761,120.53316 -7.65801,10.69575 -25.36969,29.01862 -37.42111,38.71243 C 648.06748,530.67545 573.44041,558.21038 494,565.00001 c -10.58258,0.90447 -39.32094,1.09315 -50,0.32826 z M 657.60156,285.71983 c 3.62787,-1.89217 9.12998,-7.88353 10.46543,-11.39602 0.51315,-1.34971 0.92313,-4.78721 0.91105,-7.63891 -0.0703,-16.60013 -17.05235,-26.81383 -31.44369,-18.91154 -6.23822,3.42541 -10.62513,10.11601 -11.31063,17.25019 -1.61719,16.83036 16.22561,28.59916 31.37784,20.69628 z M 309.5,538.38461 c -1.65,-0.24883 -7.275,-1.42635 -12.5,-2.61672 l -9.5,-2.16431 6.5,-0.76168 c 32.88288,-3.8533 70.65734,-17.8485 99.36055,-36.81244 28.17325,-18.6138 46.54681,-37.43559 61.80881,-63.31666 8.34001,-14.14285 17.70807,-24.17431 28.64152,-30.66975 C 493.28013,396.41747 505,392.3877 505,394.75736 c 0,0.41655 -2.3625,3.46907 -5.25,6.78339 -11.43671,13.12724 -16.03429,20.13999 -20.91422,31.9007 -3.16909,7.63758 -6.23445,18.49321 -5.44495,19.28271 0.84067,0.84068 14.65343,-3.71795 21.07393,-6.95503 9.93989,-5.01149 17.54358,-10.66058 26.86632,-19.96007 4.8571,-4.84498 9.22876,-8.80906 9.71482,-8.80906 0.48605,0 1.36892,0.90658 1.96192,2.01462 2.37999,4.44704 -4.36879,23.13175 -12.44078,34.44363 -17.36428,24.33386 -69.1304,56.23263 -116.00225,71.48169 -27.40559,8.916 -50.37381,13.09272 -74.56479,13.55944 -9.625,0.1857 -18.85,0.13405 -20.5,-0.11477 z m -18.3883,-29.9001 c -15.88033,-15.17198 -23.73869,-31.07184 -26.20951,-53.02983 -5.11651,-45.47005 24.65913,-95.43633 77.77367,-130.51138 32.95568,-21.76283 77.66343,-37.33912 121.81801,-42.4417 13.78345,-1.59285 53.58583,-2.10119 51.95613,-0.66357 -0.5225,0.46091 -7.025,2.90133 -14.45,5.42314 -11.34863,3.85444 -15.89041,4.84272 -28.5,6.20156 -81.40785,8.77273 -146.86106,44.8775 -178.43486,98.42679 -4.27547,7.25122 -8.56398,17.66236 -11.25822,27.33142 -1.93665,6.95023 -2.3,10.60638 -2.26382,22.77906 0.0384,12.90743 0.32971,15.35428 2.65269,22.27805 1.43529,4.27793 4.52257,10.99804 6.86063,14.93358 5.55473,9.35 17.81961,22.03065 27.31127,28.2371 4.1625,2.7218 7.4231,5.09381 7.24577,5.27114 -0.76408,0.76408 -17.53259,3.27752 -21.87442,3.27876 -4.56182,10e-4 -5.08999,-0.31298 -12.62734,-7.51412 z M 372,419.62212 c 0,-6.20012 -4.18996,-11.49036 -10.2909,-12.99325 -2.86218,-0.70506 -2.85813,-2.62887 0.006,-2.62887 3.56213,0 8.04089,-4.81242 9.27798,-9.96918 1.31717,-5.49059 3.00739,-6.71507 3.00739,-2.1787 0,1.56866 1.02263,4.36959 2.27251,6.22428 2.16072,3.2063 4.0489,4.51349 9.72749,6.73435 2.64489,1.03439 2.14938,1.44575 -3.12355,2.59304 -4.3596,0.94857 -6.81654,3.77634 -8.12059,9.34621 C 373.47844,422.20611 372,423.74692 372,419.62212 Z M 319.68711,313 c -0.3026,-0.825 -1.29216,-4.16867 -2.19902,-7.43037 -2.03268,-7.31097 -6.31766,-11.9309 -12.54849,-13.5294 -7.65013,-1.96263 -7.69075,-2.12429 -1.136,-4.52171 9.49623,-3.47327 12.10931,-6.52779 14.46763,-16.91172 0.67582,-2.97574 1.66034,-5.56711 2.18782,-5.75862 0.52748,-0.1915 1.46179,2.12682 2.07625,5.15182 2.14239,10.54716 5.88875,14.90457 15.12228,17.58883 2.93833,0.8542 5.34242,1.72872 5.34242,1.94339 0,0.21466 -2.25404,1.05968 -5.00897,1.8778 -10.10844,3.00189 -12.07735,5.03885 -15.55251,16.08998 -1.24217,3.95013 -2.44094,6.34646 -2.75141,5.5 z m 88.91193,-65.25 c -4.13705,-21.20035 -7.20725,-25.27809 -22.37678,-29.72011 -4.00276,-1.17211 -7.05247,-2.49561 -6.77713,-2.94111 0.27534,-0.4455 3.10032,-1.5509 6.27774,-2.45644 13.02243,-3.7113 17.99082,-8.97093 21.37914,-22.63234 1.15949,-4.675 2.48597,-8.90259 2.94772,-9.39464 0.86665,-0.92352 1.06367,-0.28422 3.00143,9.73916 1.55224,8.02926 3.22371,11.61917 7.12067,15.29353 3.96394,3.7375 7.58649,5.59672 14.32817,7.35371 2.75,0.7167 5.3856,1.64485 5.85688,2.06255 0.47129,0.4177 -2.98902,1.93253 -7.68957,3.36629 -12.88315,3.9296 -17.1792,8.55205 -19.59093,21.0794 -1.91374,9.94058 -2.07764,10.5 -3.07638,10.5 -0.52904,0 -1.15948,-1.0125 -1.40096,-2.25 z"
       id="path1" />
  </g>
</svg>
